<?xml version="1.0" standalone="no"?>
<!DOCTYPE svg PUBLIC "-//W3C//DTD SVG 1.1//EN" "http://www.w3.org/Graphics/SVG/1.1/DTD/svg11.dtd" >
<svg xmlns="http://www.w3.org/2000/svg">
<metadata>
This is a custom SVG webfont generated by Font Squirrel.
Copyright   : Copyright BLackX 2008
Designer    : BLackX
Foundry     : httpfontstructfontshopcom
Foundry URL : httpwwwfontshopcom
</metadata>
<defs>
<font id="webfontacDadend" horiz-adv-x="1484" >
<font-face units-per-em="2048" ascent="1638" descent="-410" />
<missing-glyph horiz-adv-x="512" />
<glyph unicode=" "  horiz-adv-x="512" />
<glyph unicode="&#x09;" horiz-adv-x="512" />
<glyph unicode="&#xa0;" horiz-adv-x="512" />
<glyph unicode="!" horiz-adv-x="460" d="M0 280v206h206v-206h-206zM0 792v206h206v-206h-206zM0 1048v206h206v-206h-206zM0 1304v206h206v-206h-206zM0 1560v206h206v-206h-206zM0 1816v206h206v-206h-206z" />
<glyph unicode="&#x22;" horiz-adv-x="972" d="M0 1560v206h206v-206h-206zM512 1560v206h206v-206h-206zM0 1816v206h206v-206h-206zM512 1816v206h206v-206h-206z" />
<glyph unicode="#" d="M256 536v206h206v-206h-206zM768 536v206h206v-206h-206zM0 792v206h206v-206h-206zM256 792v206h206v-206h-206zM512 792v206h206v-206h-206zM768 792v206h206v-206h-206zM1024 792v206h206v-206h-206zM256 1048v206h206v-206h-206zM768 1048v206h206v-206h-206zM0 1304 v206h206v-206h-206zM256 1304v206h206v-206h-206zM512 1304v206h206v-206h-206zM768 1304v206h206v-206h-206zM1024 1304v206h206v-206h-206zM256 1560v206h206v-206h-206zM768 1560v206h206v-206h-206z" />
<glyph unicode="$" d="M512 280v206h206v-206h-206zM0 536v206h206v-206h-206zM256 536v206h206v-206h-206zM512 536v206h206v-206h-206zM768 536v206h206v-206h-206zM512 792v206h206v-206h-206zM1024 792v206h206v-206h-206zM256 1048v206h206v-206h-206zM512 1048v206h206v-206h-206z M768 1048v206h206v-206h-206zM0 1304v206h206v-206h-206zM512 1304v206h206v-206h-206zM256 1560v206h206v-206h-206zM512 1560v206h206v-206h-206zM768 1560v206h206v-206h-206zM1024 1560v206h206v-206h-206zM512 1816v206h206v-206h-206z" />
<glyph unicode="%" d="M0 280v206h206v-206h-206zM768 280v206h206v-206h-206zM1024 280v206h206v-206h-206zM0 536v206h206v-206h-206zM768 536v206h206v-206h-206zM1024 536v206h206v-206h-206zM256 792v206h206v-206h-206zM512 1048v206h206v-206h-206zM768 1304v206h206v-206h-206zM0 1560 v206h206v-206h-206zM256 1560v206h206v-206h-206zM1024 1560v206h206v-206h-206zM0 1816v206h206v-206h-206zM256 1816v206h206v-206h-206zM1024 1816v206h206v-206h-206z" />
<glyph unicode="&#x26;" d="M256 280v206h206v-206h-206zM512 280v206h206v-206h-206zM1024 280v206h206v-206h-206zM0 536v206h206v-206h-206zM768 536v206h206v-206h-206zM0 792v206h206v-206h-206zM512 792v206h206v-206h-206zM1024 792v206h206v-206h-206zM256 1048v206h206v-206h-206zM0 1304 v206h206v-206h-206zM512 1304v206h206v-206h-206zM0 1560v206h206v-206h-206zM768 1560v206h206v-206h-206zM256 1816v206h206v-206h-206zM512 1816v206h206v-206h-206z" />
<glyph unicode="'" horiz-adv-x="460" d="M0 1560v206h206v-206h-206zM0 1816v206h206v-206h-206z" />
<glyph unicode="(" horiz-adv-x="716" d="M256 280v206h206v-206h-206zM0 536v206h206v-206h-206zM0 792v206h206v-206h-206zM0 1048v206h206v-206h-206zM0 1304v206h206v-206h-206zM0 1560v206h206v-206h-206zM256 1816v206h206v-206h-206z" />
<glyph unicode=")" horiz-adv-x="716" d="M0 280v206h206v-206h-206zM256 536v206h206v-206h-206zM256 792v206h206v-206h-206zM256 1048v206h206v-206h-206zM256 1304v206h206v-206h-206zM256 1560v206h206v-206h-206zM0 1816v206h206v-206h-206z" />
<glyph unicode="*" d="M0 536v206h206v-206h-206zM512 536v206h206v-206h-206zM1024 536v206h206v-206h-206zM256 792v206h206v-206h-206zM512 792v206h206v-206h-206zM768 792v206h206v-206h-206zM0 1048v206h206v-206h-206zM256 1048v206h206v-206h-206zM512 1048v206h206v-206h-206z M768 1048v206h206v-206h-206zM1024 1048v206h206v-206h-206zM256 1304v206h206v-206h-206zM512 1304v206h206v-206h-206zM768 1304v206h206v-206h-206zM0 1560v206h206v-206h-206zM512 1560v206h206v-206h-206zM1024 1560v206h206v-206h-206z" />
<glyph unicode="+" horiz-adv-x="972" d="M256 792v206h206v-206h-206zM0 1048v206h206v-206h-206zM256 1048v206h206v-206h-206zM512 1048v206h206v-206h-206zM256 1304v206h206v-206h-206z" />
<glyph unicode="," horiz-adv-x="460" d="M0 24v206h206v-206h-206zM0 280v206h206v-206h-206z" />
<glyph unicode="-" horiz-adv-x="972" d="M0 1048v206h206v-206h-206zM256 1048v206h206v-206h-206zM512 1048v206h206v-206h-206z" />
<glyph unicode="." horiz-adv-x="460" d="M0 280v206h206v-206h-206z" />
<glyph unicode="/" d="M0 280v206h206v-206h-206zM0 536v206h206v-206h-206zM256 792v206h206v-206h-206zM512 1048v206h206v-206h-206zM768 1304v206h206v-206h-206zM1024 1560v206h206v-206h-206zM1024 1816v206h206v-206h-206z" />
<glyph unicode="0" d="M256 280v206h206v-206h-206zM512 280v206h206v-206h-206zM768 280v206h206v-206h-206zM0 536v206h206v-206h-206zM1024 536v206h206v-206h-206zM0 792v206h206v-206h-206zM256 792v206h206v-206h-206zM1024 792v206h206v-206h-206zM0 1048v206h206v-206h-206zM512 1048 v206h206v-206h-206zM1024 1048v206h206v-206h-206zM0 1304v206h206v-206h-206zM768 1304v206h206v-206h-206zM1024 1304v206h206v-206h-206zM0 1560v206h206v-206h-206zM1024 1560v206h206v-206h-206zM256 1816v206h206v-206h-206zM512 1816v206h206v-206h-206zM768 1816 v206h206v-206h-206z" />
<glyph unicode="1" horiz-adv-x="972" d="M0 280v206h206v-206h-206zM256 280v206h206v-206h-206zM512 280v206h206v-206h-206zM256 536v206h206v-206h-206zM256 792v206h206v-206h-206zM256 1048v206h206v-206h-206zM256 1304v206h206v-206h-206zM0 1560v206h206v-206h-206zM256 1560v206h206v-206h-206z M256 1816v206h206v-206h-206z" />
<glyph unicode="2" d="M0 280v206h206v-206h-206zM256 280v206h206v-206h-206zM512 280v206h206v-206h-206zM768 280v206h206v-206h-206zM1024 280v206h206v-206h-206zM0 536v206h206v-206h-206zM256 792v206h206v-206h-206zM512 1048v206h206v-206h-206zM768 1048v206h206v-206h-206z M1024 1304v206h206v-206h-206zM0 1560v206h206v-206h-206zM1024 1560v206h206v-206h-206zM256 1816v206h206v-206h-206zM512 1816v206h206v-206h-206zM768 1816v206h206v-206h-206z" />
<glyph unicode="3" d="M256 280v206h206v-206h-206zM512 280v206h206v-206h-206zM768 280v206h206v-206h-206zM0 536v206h206v-206h-206zM1024 536v206h206v-206h-206zM1024 792v206h206v-206h-206zM512 1048v206h206v-206h-206zM768 1048v206h206v-206h-206zM1024 1304v206h206v-206h-206z M0 1560v206h206v-206h-206zM1024 1560v206h206v-206h-206zM256 1816v206h206v-206h-206zM512 1816v206h206v-206h-206zM768 1816v206h206v-206h-206z" />
<glyph unicode="4" d="M768 280v206h206v-206h-206zM768 536v206h206v-206h-206zM0 792v206h206v-206h-206zM256 792v206h206v-206h-206zM512 792v206h206v-206h-206zM768 792v206h206v-206h-206zM1024 792v206h206v-206h-206zM0 1048v206h206v-206h-206zM768 1048v206h206v-206h-206zM256 1304 v206h206v-206h-206zM768 1304v206h206v-206h-206zM512 1560v206h206v-206h-206zM768 1560v206h206v-206h-206zM768 1816v206h206v-206h-206z" />
<glyph unicode="5" d="M256 280v206h206v-206h-206zM512 280v206h206v-206h-206zM768 280v206h206v-206h-206zM0 536v206h206v-206h-206zM1024 536v206h206v-206h-206zM1024 792v206h206v-206h-206zM1024 1048v206h206v-206h-206zM0 1304v206h206v-206h-206zM256 1304v206h206v-206h-206z M512 1304v206h206v-206h-206zM768 1304v206h206v-206h-206zM0 1560v206h206v-206h-206zM0 1816v206h206v-206h-206zM256 1816v206h206v-206h-206zM512 1816v206h206v-206h-206zM768 1816v206h206v-206h-206zM1024 1816v206h206v-206h-206z" />
<glyph unicode="6" d="M256 280v206h206v-206h-206zM512 280v206h206v-206h-206zM768 280v206h206v-206h-206zM0 536v206h206v-206h-206zM1024 536v206h206v-206h-206zM0 792v206h206v-206h-206zM1024 792v206h206v-206h-206zM0 1048v206h206v-206h-206zM256 1048v206h206v-206h-206zM512 1048 v206h206v-206h-206zM768 1048v206h206v-206h-206zM0 1304v206h206v-206h-206zM0 1560v206h206v-206h-206zM1024 1560v206h206v-206h-206zM256 1816v206h206v-206h-206zM512 1816v206h206v-206h-206zM768 1816v206h206v-206h-206z" />
<glyph unicode="7" d="M512 280v206h206v-206h-206zM512 536v206h206v-206h-206zM512 792v206h206v-206h-206zM512 1048v206h206v-206h-206zM768 1304v206h206v-206h-206zM1024 1560v206h206v-206h-206zM0 1816v206h206v-206h-206zM256 1816v206h206v-206h-206zM512 1816v206h206v-206h-206z M768 1816v206h206v-206h-206zM1024 1816v206h206v-206h-206z" />
<glyph unicode="8" d="M256 280v206h206v-206h-206zM512 280v206h206v-206h-206zM768 280v206h206v-206h-206zM0 536v206h206v-206h-206zM1024 536v206h206v-206h-206zM0 792v206h206v-206h-206zM1024 792v206h206v-206h-206zM256 1048v206h206v-206h-206zM512 1048v206h206v-206h-206z M768 1048v206h206v-206h-206zM0 1304v206h206v-206h-206zM1024 1304v206h206v-206h-206zM0 1560v206h206v-206h-206zM1024 1560v206h206v-206h-206zM256 1816v206h206v-206h-206zM512 1816v206h206v-206h-206zM768 1816v206h206v-206h-206z" />
<glyph unicode="9" d="M256 280v206h206v-206h-206zM512 280v206h206v-206h-206zM768 280v206h206v-206h-206zM0 536v206h206v-206h-206zM1024 536v206h206v-206h-206zM1024 792v206h206v-206h-206zM256 1048v206h206v-206h-206zM512 1048v206h206v-206h-206zM768 1048v206h206v-206h-206z M1024 1048v206h206v-206h-206zM0 1304v206h206v-206h-206zM1024 1304v206h206v-206h-206zM0 1560v206h206v-206h-206zM1024 1560v206h206v-206h-206zM256 1816v206h206v-206h-206zM512 1816v206h206v-206h-206zM768 1816v206h206v-206h-206z" />
<glyph unicode=":" horiz-adv-x="460" d="M0 280v206h206v-206h-206zM0 1304v206h206v-206h-206z" />
<glyph unicode=";" horiz-adv-x="460" d="M0 24v206h206v-206h-206zM0 280v206h206v-206h-206zM0 1304v206h206v-206h-206z" />
<glyph unicode="&#x3c;" horiz-adv-x="972" d="M512 536v206h206v-206h-206zM256 792v206h206v-206h-206zM0 1048v206h206v-206h-206zM256 1304v206h206v-206h-206zM512 1560v206h206v-206h-206z" />
<glyph unicode="=" horiz-adv-x="972" d="M0 792v206h206v-206h-206zM256 792v206h206v-206h-206zM512 792v206h206v-206h-206zM0 1304v206h206v-206h-206zM256 1304v206h206v-206h-206zM512 1304v206h206v-206h-206z" />
<glyph unicode="&#x3e;" horiz-adv-x="972" d="M0 536v206h206v-206h-206zM256 792v206h206v-206h-206zM512 1048v206h206v-206h-206zM256 1304v206h206v-206h-206zM0 1560v206h206v-206h-206z" />
<glyph unicode="?" d="M512 280v206h206v-206h-206zM512 792v206h206v-206h-206zM768 1048v206h206v-206h-206zM1024 1304v206h206v-206h-206zM0 1560v206h206v-206h-206zM1024 1560v206h206v-206h-206zM256 1816v206h206v-206h-206zM512 1816v206h206v-206h-206zM768 1816v206h206v-206h-206z " />
<glyph unicode="@" horiz-adv-x="1996" d="M256 280v206h206v-206h-206zM512 280v206h206v-206h-206zM768 280v206h206v-206h-206zM1024 280v206h206v-206h-206zM1280 280v206h206v-206h-206zM0 536v206h206v-206h-206zM0 792v206h206v-206h-206zM512 792v206h206v-206h-206zM768 792v206h206v-206h-206zM1280 792 v206h206v-206h-206zM0 1048v206h206v-206h-206zM512 1048v206h206v-206h-206zM1024 1048v206h206v-206h-206zM1536 1048v206h206v-206h-206zM0 1304v206h206v-206h-206zM768 1304v206h206v-206h-206zM1024 1304v206h206v-206h-206zM1536 1304v206h206v-206h-206zM0 1560v206 h206v-206h-206zM1536 1560v206h206v-206h-206zM256 1816v206h206v-206h-206zM512 1816v206h206v-206h-206zM768 1816v206h206v-206h-206zM1024 1816v206h206v-206h-206zM1280 1816v206h206v-206h-206z" />
<glyph unicode="A" d="M0 280v206h206v-206h-206zM1024 280v206h206v-206h-206zM0 536v206h206v-206h-206zM1024 536v206h206v-206h-206zM0 792v206h206v-206h-206zM256 792v206h206v-206h-206zM512 792v206h206v-206h-206zM768 792v206h206v-206h-206zM1024 792v206h206v-206h-206zM0 1048v206 h206v-206h-206zM1024 1048v206h206v-206h-206zM0 1304v206h206v-206h-206zM1024 1304v206h206v-206h-206zM256 1560v206h206v-206h-206zM768 1560v206h206v-206h-206zM512 1816v206h206v-206h-206z" />
<glyph unicode="B" d="M0 280v206h206v-206h-206zM256 280v206h206v-206h-206zM512 280v206h206v-206h-206zM768 280v206h206v-206h-206zM0 536v206h206v-206h-206zM1024 536v206h206v-206h-206zM0 792v206h206v-206h-206zM1024 792v206h206v-206h-206zM0 1048v206h206v-206h-206zM256 1048v206 h206v-206h-206zM512 1048v206h206v-206h-206zM768 1048v206h206v-206h-206zM0 1304v206h206v-206h-206zM1024 1304v206h206v-206h-206zM0 1560v206h206v-206h-206zM1024 1560v206h206v-206h-206zM0 1816v206h206v-206h-206zM256 1816v206h206v-206h-206zM512 1816v206h206 v-206h-206zM768 1816v206h206v-206h-206z" />
<glyph unicode="C" d="M256 280v206h206v-206h-206zM512 280v206h206v-206h-206zM768 280v206h206v-206h-206zM0 536v206h206v-206h-206zM1024 536v206h206v-206h-206zM0 792v206h206v-206h-206zM0 1048v206h206v-206h-206zM0 1304v206h206v-206h-206zM0 1560v206h206v-206h-206zM1024 1560v206 h206v-206h-206zM256 1816v206h206v-206h-206zM512 1816v206h206v-206h-206zM768 1816v206h206v-206h-206z" />
<glyph unicode="D" d="M0 280v206h206v-206h-206zM256 280v206h206v-206h-206zM512 280v206h206v-206h-206zM768 280v206h206v-206h-206zM0 536v206h206v-206h-206zM1024 536v206h206v-206h-206zM0 792v206h206v-206h-206zM1024 792v206h206v-206h-206zM0 1048v206h206v-206h-206zM1024 1048 v206h206v-206h-206zM0 1304v206h206v-206h-206zM1024 1304v206h206v-206h-206zM0 1560v206h206v-206h-206zM1024 1560v206h206v-206h-206zM0 1816v206h206v-206h-206zM256 1816v206h206v-206h-206zM512 1816v206h206v-206h-206zM768 1816v206h206v-206h-206z" />
<glyph unicode="E" d="M0 280v206h206v-206h-206zM256 280v206h206v-206h-206zM512 280v206h206v-206h-206zM768 280v206h206v-206h-206zM1024 280v206h206v-206h-206zM0 536v206h206v-206h-206zM0 792v206h206v-206h-206zM0 1048v206h206v-206h-206zM256 1048v206h206v-206h-206zM512 1048v206 h206v-206h-206zM768 1048v206h206v-206h-206zM0 1304v206h206v-206h-206zM0 1560v206h206v-206h-206zM0 1816v206h206v-206h-206zM256 1816v206h206v-206h-206zM512 1816v206h206v-206h-206zM768 1816v206h206v-206h-206zM1024 1816v206h206v-206h-206z" />
<glyph unicode="F" d="M0 280v206h206v-206h-206zM0 536v206h206v-206h-206zM0 792v206h206v-206h-206zM0 1048v206h206v-206h-206zM256 1048v206h206v-206h-206zM512 1048v206h206v-206h-206zM768 1048v206h206v-206h-206zM0 1304v206h206v-206h-206zM0 1560v206h206v-206h-206zM0 1816v206 h206v-206h-206zM256 1816v206h206v-206h-206zM512 1816v206h206v-206h-206zM768 1816v206h206v-206h-206zM1024 1816v206h206v-206h-206z" />
<glyph unicode="G" d="M256 280v206h206v-206h-206zM512 280v206h206v-206h-206zM1024 280v206h206v-206h-206zM0 536v206h206v-206h-206zM768 536v206h206v-206h-206zM1024 536v206h206v-206h-206zM0 792v206h206v-206h-206zM1024 792v206h206v-206h-206zM0 1048v206h206v-206h-206zM512 1048 v206h206v-206h-206zM768 1048v206h206v-206h-206zM1024 1048v206h206v-206h-206zM0 1304v206h206v-206h-206zM0 1560v206h206v-206h-206zM1024 1560v206h206v-206h-206zM256 1816v206h206v-206h-206zM512 1816v206h206v-206h-206zM768 1816v206h206v-206h-206z" />
<glyph unicode="H" d="M0 280v206h206v-206h-206zM1024 280v206h206v-206h-206zM0 536v206h206v-206h-206zM1024 536v206h206v-206h-206zM0 792v206h206v-206h-206zM1024 792v206h206v-206h-206zM0 1048v206h206v-206h-206zM256 1048v206h206v-206h-206zM512 1048v206h206v-206h-206zM768 1048 v206h206v-206h-206zM1024 1048v206h206v-206h-206zM0 1304v206h206v-206h-206zM1024 1304v206h206v-206h-206zM0 1560v206h206v-206h-206zM1024 1560v206h206v-206h-206zM0 1816v206h206v-206h-206zM1024 1816v206h206v-206h-206z" />
<glyph unicode="I" horiz-adv-x="972" d="M0 280v206h206v-206h-206zM256 280v206h206v-206h-206zM512 280v206h206v-206h-206zM256 536v206h206v-206h-206zM256 792v206h206v-206h-206zM256 1048v206h206v-206h-206zM256 1304v206h206v-206h-206zM256 1560v206h206v-206h-206zM0 1816v206h206v-206h-206z M256 1816v206h206v-206h-206zM512 1816v206h206v-206h-206z" />
<glyph unicode="J" d="M256 280v206h206v-206h-206zM512 280v206h206v-206h-206zM768 280v206h206v-206h-206zM0 536v206h206v-206h-206zM1024 536v206h206v-206h-206zM1024 792v206h206v-206h-206zM1024 1048v206h206v-206h-206zM1024 1304v206h206v-206h-206zM1024 1560v206h206v-206h-206z M1024 1816v206h206v-206h-206z" />
<glyph unicode="K" d="M0 280v206h206v-206h-206zM1024 280v206h206v-206h-206zM0 536v206h206v-206h-206zM1024 536v206h206v-206h-206zM0 792v206h206v-206h-206zM768 792v206h206v-206h-206zM0 1048v206h206v-206h-206zM256 1048v206h206v-206h-206zM512 1048v206h206v-206h-206zM0 1304v206 h206v-206h-206zM768 1304v206h206v-206h-206zM0 1560v206h206v-206h-206zM1024 1560v206h206v-206h-206zM0 1816v206h206v-206h-206zM1024 1816v206h206v-206h-206z" />
<glyph unicode="L" d="M0 280v206h206v-206h-206zM256 280v206h206v-206h-206zM512 280v206h206v-206h-206zM768 280v206h206v-206h-206zM1024 280v206h206v-206h-206zM0 536v206h206v-206h-206zM0 792v206h206v-206h-206zM0 1048v206h206v-206h-206zM0 1304v206h206v-206h-206zM0 1560v206h206 v-206h-206zM0 1816v206h206v-206h-206z" />
<glyph unicode="M" d="M0 280v206h206v-206h-206zM1024 280v206h206v-206h-206zM0 536v206h206v-206h-206zM1024 536v206h206v-206h-206zM0 792v206h206v-206h-206zM1024 792v206h206v-206h-206zM0 1048v206h206v-206h-206zM512 1048v206h206v-206h-206zM1024 1048v206h206v-206h-206zM0 1304 v206h206v-206h-206zM512 1304v206h206v-206h-206zM1024 1304v206h206v-206h-206zM0 1560v206h206v-206h-206zM256 1560v206h206v-206h-206zM768 1560v206h206v-206h-206zM1024 1560v206h206v-206h-206zM0 1816v206h206v-206h-206zM1024 1816v206h206v-206h-206z" />
<glyph unicode="N" d="M0 280v206h206v-206h-206zM1024 280v206h206v-206h-206zM0 536v206h206v-206h-206zM1024 536v206h206v-206h-206zM0 792v206h206v-206h-206zM1024 792v206h206v-206h-206zM0 1048v206h206v-206h-206zM768 1048v206h206v-206h-206zM1024 1048v206h206v-206h-206zM0 1304 v206h206v-206h-206zM512 1304v206h206v-206h-206zM1024 1304v206h206v-206h-206zM0 1560v206h206v-206h-206zM256 1560v206h206v-206h-206zM1024 1560v206h206v-206h-206zM0 1816v206h206v-206h-206zM1024 1816v206h206v-206h-206z" />
<glyph unicode="O" d="M256 280v206h206v-206h-206zM512 280v206h206v-206h-206zM768 280v206h206v-206h-206zM0 536v206h206v-206h-206zM1024 536v206h206v-206h-206zM0 792v206h206v-206h-206zM1024 792v206h206v-206h-206zM0 1048v206h206v-206h-206zM1024 1048v206h206v-206h-206zM0 1304 v206h206v-206h-206zM1024 1304v206h206v-206h-206zM0 1560v206h206v-206h-206zM1024 1560v206h206v-206h-206zM256 1816v206h206v-206h-206zM512 1816v206h206v-206h-206zM768 1816v206h206v-206h-206z" />
<glyph unicode="P" d="M0 280v206h206v-206h-206zM0 536v206h206v-206h-206zM0 792v206h206v-206h-206zM0 1048v206h206v-206h-206zM256 1048v206h206v-206h-206zM512 1048v206h206v-206h-206zM768 1048v206h206v-206h-206zM0 1304v206h206v-206h-206zM1024 1304v206h206v-206h-206zM0 1560v206 h206v-206h-206zM1024 1560v206h206v-206h-206zM0 1816v206h206v-206h-206zM256 1816v206h206v-206h-206zM512 1816v206h206v-206h-206zM768 1816v206h206v-206h-206z" />
<glyph unicode="Q" d="M1024 24v206h206v-206h-206zM256 280v206h206v-206h-206zM512 280v206h206v-206h-206zM768 280v206h206v-206h-206zM0 536v206h206v-206h-206zM1024 536v206h206v-206h-206zM0 792v206h206v-206h-206zM1024 792v206h206v-206h-206zM0 1048v206h206v-206h-206zM1024 1048 v206h206v-206h-206zM0 1304v206h206v-206h-206zM1024 1304v206h206v-206h-206zM0 1560v206h206v-206h-206zM1024 1560v206h206v-206h-206zM256 1816v206h206v-206h-206zM512 1816v206h206v-206h-206zM768 1816v206h206v-206h-206z" />
<glyph unicode="R" d="M0 280v206h206v-206h-206zM1024 280v206h206v-206h-206zM0 536v206h206v-206h-206zM1024 536v206h206v-206h-206zM0 792v206h206v-206h-206zM1024 792v206h206v-206h-206zM0 1048v206h206v-206h-206zM256 1048v206h206v-206h-206zM512 1048v206h206v-206h-206zM768 1048 v206h206v-206h-206zM0 1304v206h206v-206h-206zM1024 1304v206h206v-206h-206zM0 1560v206h206v-206h-206zM1024 1560v206h206v-206h-206zM0 1816v206h206v-206h-206zM256 1816v206h206v-206h-206zM512 1816v206h206v-206h-206zM768 1816v206h206v-206h-206z" />
<glyph unicode="S" d="M256 280v206h206v-206h-206zM512 280v206h206v-206h-206zM768 280v206h206v-206h-206zM0 536v206h206v-206h-206zM1024 536v206h206v-206h-206zM1024 792v206h206v-206h-206zM256 1048v206h206v-206h-206zM512 1048v206h206v-206h-206zM768 1048v206h206v-206h-206z M0 1304v206h206v-206h-206zM0 1560v206h206v-206h-206zM1024 1560v206h206v-206h-206zM256 1816v206h206v-206h-206zM512 1816v206h206v-206h-206zM768 1816v206h206v-206h-206z" />
<glyph unicode="T" d="M512 280v206h206v-206h-206zM512 536v206h206v-206h-206zM512 792v206h206v-206h-206zM512 1048v206h206v-206h-206zM512 1304v206h206v-206h-206zM512 1560v206h206v-206h-206zM0 1816v206h206v-206h-206zM256 1816v206h206v-206h-206zM512 1816v206h206v-206h-206z M768 1816v206h206v-206h-206zM1024 1816v206h206v-206h-206z" />
<glyph unicode="U" d="M256 280v206h206v-206h-206zM512 280v206h206v-206h-206zM768 280v206h206v-206h-206zM0 536v206h206v-206h-206zM1024 536v206h206v-206h-206zM0 792v206h206v-206h-206zM1024 792v206h206v-206h-206zM0 1048v206h206v-206h-206zM1024 1048v206h206v-206h-206zM0 1304 v206h206v-206h-206zM1024 1304v206h206v-206h-206zM0 1560v206h206v-206h-206zM1024 1560v206h206v-206h-206zM0 1816v206h206v-206h-206zM1024 1816v206h206v-206h-206z" />
<glyph unicode="V" d="M512 280v206h206v-206h-206zM256 536v206h206v-206h-206zM768 536v206h206v-206h-206zM0 792v206h206v-206h-206zM1024 792v206h206v-206h-206zM0 1048v206h206v-206h-206zM1024 1048v206h206v-206h-206zM0 1304v206h206v-206h-206zM1024 1304v206h206v-206h-206zM0 1560 v206h206v-206h-206zM1024 1560v206h206v-206h-206zM0 1816v206h206v-206h-206zM1024 1816v206h206v-206h-206z" />
<glyph unicode="W" horiz-adv-x="1996" d="M256 280v206h206v-206h-206zM512 280v206h206v-206h-206zM1024 280v206h206v-206h-206zM1280 280v206h206v-206h-206zM0 536v206h206v-206h-206zM768 536v206h206v-206h-206zM1536 536v206h206v-206h-206zM0 792v206h206v-206h-206zM768 792v206h206v-206h-206zM1536 792 v206h206v-206h-206zM0 1048v206h206v-206h-206zM768 1048v206h206v-206h-206zM1536 1048v206h206v-206h-206zM0 1304v206h206v-206h-206zM768 1304v206h206v-206h-206zM1536 1304v206h206v-206h-206zM0 1560v206h206v-206h-206zM768 1560v206h206v-206h-206zM1536 1560v206 h206v-206h-206zM0 1816v206h206v-206h-206zM768 1816v206h206v-206h-206zM1536 1816v206h206v-206h-206z" />
<glyph unicode="X" d="M0 280v206h206v-206h-206zM1024 280v206h206v-206h-206zM0 536v206h206v-206h-206zM1024 536v206h206v-206h-206zM256 792v206h206v-206h-206zM768 792v206h206v-206h-206zM512 1048v206h206v-206h-206zM256 1304v206h206v-206h-206zM768 1304v206h206v-206h-206zM0 1560 v206h206v-206h-206zM1024 1560v206h206v-206h-206zM0 1816v206h206v-206h-206zM1024 1816v206h206v-206h-206z" />
<glyph unicode="Y" d="M512 280v206h206v-206h-206zM512 536v206h206v-206h-206zM512 792v206h206v-206h-206zM256 1048v206h206v-206h-206zM768 1048v206h206v-206h-206zM0 1304v206h206v-206h-206zM1024 1304v206h206v-206h-206zM0 1560v206h206v-206h-206zM1024 1560v206h206v-206h-206z M0 1816v206h206v-206h-206zM1024 1816v206h206v-206h-206z" />
<glyph unicode="Z" d="M0 280v206h206v-206h-206zM256 280v206h206v-206h-206zM512 280v206h206v-206h-206zM768 280v206h206v-206h-206zM1024 280v206h206v-206h-206zM0 536v206h206v-206h-206zM256 792v206h206v-206h-206zM512 1048v206h206v-206h-206zM768 1304v206h206v-206h-206z M1024 1560v206h206v-206h-206zM0 1816v206h206v-206h-206zM256 1816v206h206v-206h-206zM512 1816v206h206v-206h-206zM768 1816v206h206v-206h-206zM1024 1816v206h206v-206h-206z" />
<glyph unicode="[" horiz-adv-x="716" d="M0 280v206h206v-206h-206zM256 280v206h206v-206h-206zM0 536v206h206v-206h-206zM0 792v206h206v-206h-206zM0 1048v206h206v-206h-206zM0 1304v206h206v-206h-206zM0 1560v206h206v-206h-206zM0 1816v206h206v-206h-206zM256 1816v206h206v-206h-206z" />
<glyph unicode="\" d="M1024 280v206h206v-206h-206zM1024 536v206h206v-206h-206zM768 792v206h206v-206h-206zM512 1048v206h206v-206h-206zM256 1304v206h206v-206h-206zM0 1560v206h206v-206h-206zM0 1816v206h206v-206h-206z" />
<glyph unicode="]" horiz-adv-x="716" d="M0 280v206h206v-206h-206zM256 280v206h206v-206h-206zM256 536v206h206v-206h-206zM256 792v206h206v-206h-206zM256 1048v206h206v-206h-206zM256 1304v206h206v-206h-206zM256 1560v206h206v-206h-206zM0 1816v206h206v-206h-206zM256 1816v206h206v-206h-206z" />
<glyph unicode="^" horiz-adv-x="972" d="M0 1560v206h206v-206h-206zM512 1560v206h206v-206h-206zM256 1816v206h206v-206h-206z" />
<glyph unicode="_" d="M0 280v206h206v-206h-206zM256 280v206h206v-206h-206zM512 280v206h206v-206h-206zM768 280v206h206v-206h-206zM1024 280v206h206v-206h-206z" />
<glyph unicode="`" horiz-adv-x="512" d="M128 1536v256h-128v256h256v-512h-128z" />
<glyph unicode="a" d="M256 280v206h206v-206h-206zM512 280v206h206v-206h-206zM768 280v206h206v-206h-206zM1024 280v206h206v-206h-206zM0 536v206h206v-206h-206zM1024 536v206h206v-206h-206zM256 792v206h206v-206h-206zM512 792v206h206v-206h-206zM768 792v206h206v-206h-206z M1024 792v206h206v-206h-206zM1024 1048v206h206v-206h-206zM256 1304v206h206v-206h-206zM512 1304v206h206v-206h-206zM768 1304v206h206v-206h-206z" />
<glyph unicode="b" d="M0 280v206h206v-206h-206zM256 280v206h206v-206h-206zM512 280v206h206v-206h-206zM768 280v206h206v-206h-206zM0 536v206h206v-206h-206zM1024 536v206h206v-206h-206zM0 792v206h206v-206h-206zM1024 792v206h206v-206h-206zM0 1048v206h206v-206h-206zM256 1048v206 h206v-206h-206zM1024 1048v206h206v-206h-206zM0 1304v206h206v-206h-206zM512 1304v206h206v-206h-206zM768 1304v206h206v-206h-206zM0 1560v206h206v-206h-206zM0 1816v206h206v-206h-206z" />
<glyph unicode="c" horiz-adv-x="1228" d="M256 280v206h206v-206h-206zM512 280v206h206v-206h-206zM768 280v206h206v-206h-206zM0 536v206h206v-206h-206zM0 792v206h206v-206h-206zM0 1048v206h206v-206h-206zM256 1304v206h206v-206h-206zM512 1304v206h206v-206h-206zM768 1304v206h206v-206h-206z" />
<glyph unicode="d" d="M256 280v206h206v-206h-206zM512 280v206h206v-206h-206zM1024 280v206h206v-206h-206zM0 536v206h206v-206h-206zM768 536v206h206v-206h-206zM1024 536v206h206v-206h-206zM0 792v206h206v-206h-206zM1024 792v206h206v-206h-206zM0 1048v206h206v-206h-206zM1024 1048 v206h206v-206h-206zM256 1304v206h206v-206h-206zM512 1304v206h206v-206h-206zM768 1304v206h206v-206h-206zM1024 1304v206h206v-206h-206zM1024 1560v206h206v-206h-206zM1024 1816v206h206v-206h-206z" />
<glyph unicode="e" d="M256 280v206h206v-206h-206zM512 280v206h206v-206h-206zM768 280v206h206v-206h-206zM1024 280v206h206v-206h-206zM0 536v206h206v-206h-206zM0 792v206h206v-206h-206zM256 792v206h206v-206h-206zM512 792v206h206v-206h-206zM768 792v206h206v-206h-206zM0 1048v206 h206v-206h-206zM1024 1048v206h206v-206h-206zM256 1304v206h206v-206h-206zM512 1304v206h206v-206h-206zM768 1304v206h206v-206h-206z" />
<glyph unicode="f" horiz-adv-x="972" d="M256 280v206h206v-206h-206zM256 536v206h206v-206h-206zM256 792v206h206v-206h-206zM256 1048v206h206v-206h-206zM0 1304v206h206v-206h-206zM256 1304v206h206v-206h-206zM512 1304v206h206v-206h-206zM256 1560v206h206v-206h-206zM512 1816v206h206v-206h-206z" />
<glyph unicode="g" d="M256 -230v206h206v-206h-206zM512 -230v206h206v-206h-206zM768 -230v206h206v-206h-206zM1024 24v206h206v-206h-206zM256 280v206h206v-206h-206zM512 280v206h206v-206h-206zM1024 280v206h206v-206h-206zM0 536v206h206v-206h-206zM768 536v206h206v-206h-206z M1024 536v206h206v-206h-206zM0 792v206h206v-206h-206zM1024 792v206h206v-206h-206zM0 1048v206h206v-206h-206zM1024 1048v206h206v-206h-206zM256 1304v206h206v-206h-206zM512 1304v206h206v-206h-206zM768 1304v206h206v-206h-206zM1024 1304v206h206v-206h-206z" />
<glyph unicode="h" d="M0 280v206h206v-206h-206zM1024 280v206h206v-206h-206zM0 536v206h206v-206h-206zM1024 536v206h206v-206h-206zM0 792v206h206v-206h-206zM1024 792v206h206v-206h-206zM0 1048v206h206v-206h-206zM256 1048v206h206v-206h-206zM1024 1048v206h206v-206h-206zM0 1304 v206h206v-206h-206zM512 1304v206h206v-206h-206zM768 1304v206h206v-206h-206zM0 1560v206h206v-206h-206zM0 1816v206h206v-206h-206z" />
<glyph unicode="i" horiz-adv-x="460" d="M0 280v206h206v-206h-206zM0 536v206h206v-206h-206zM0 792v206h206v-206h-206zM0 1048v206h206v-206h-206zM0 1304v206h206v-206h-206zM0 1816v206h206v-206h-206z" />
<glyph unicode="j" horiz-adv-x="716" d="M0 -230v206h206v-206h-206zM254 24v206h206v-206h-206zM254 280v206h206v-206h-206zM254 536v206h206v-206h-206zM254 792v206h206v-206h-206zM254 1048v206h206v-206h-206zM254 1304v206h206v-206h-206zM254 1816v206h206v-206h-206z" />
<glyph unicode="k" horiz-adv-x="1228" d="M0 280v206h206v-206h-206zM768 280v206h206v-206h-206zM0 536v206h206v-206h-206zM512 536v206h206v-206h-206zM0 792v206h206v-206h-206zM256 792v206h206v-206h-206zM0 1048v206h206v-206h-206zM512 1048v206h206v-206h-206zM0 1304v206h206v-206h-206zM768 1304v206 h206v-206h-206zM0 1560v206h206v-206h-206zM0 1816v206h206v-206h-206z" />
<glyph unicode="l" horiz-adv-x="460" d="M0 280v206h206v-206h-206zM0 536v206h206v-206h-206zM0 792v206h206v-206h-206zM0 1048v206h206v-206h-206zM0 1304v206h206v-206h-206zM0 1560v206h206v-206h-206zM0 1816v206h206v-206h-206z" />
<glyph unicode="m" horiz-adv-x="1996" d="M0 280v206h206v-206h-206zM768 280v206h206v-206h-206zM1536 280v206h206v-206h-206zM0 536v206h206v-206h-206zM768 536v206h206v-206h-206zM1536 536v206h206v-206h-206zM0 792v206h206v-206h-206zM768 792v206h206v-206h-206zM1536 792v206h206v-206h-206zM0 1048v206 h206v-206h-206zM768 1048v206h206v-206h-206zM1536 1048v206h206v-206h-206zM0 1304v206h206v-206h-206zM256 1304v206h206v-206h-206zM512 1304v206h206v-206h-206zM1024 1304v206h206v-206h-206zM1280 1304v206h206v-206h-206z" />
<glyph unicode="n" d="M0 280v206h206v-206h-206zM1024 280v206h206v-206h-206zM0 536v206h206v-206h-206zM1024 536v206h206v-206h-206zM0 792v206h206v-206h-206zM1024 792v206h206v-206h-206zM0 1048v206h206v-206h-206zM1024 1048v206h206v-206h-206zM0 1304v206h206v-206h-206zM256 1304 v206h206v-206h-206zM512 1304v206h206v-206h-206zM768 1304v206h206v-206h-206z" />
<glyph unicode="o" d="M256 280v206h206v-206h-206zM512 280v206h206v-206h-206zM768 280v206h206v-206h-206zM0 536v206h206v-206h-206zM1024 536v206h206v-206h-206zM0 792v206h206v-206h-206zM1024 792v206h206v-206h-206zM0 1048v206h206v-206h-206zM1024 1048v206h206v-206h-206zM256 1304 v206h206v-206h-206zM512 1304v206h206v-206h-206zM768 1304v206h206v-206h-206z" />
<glyph unicode="p" d="M0 -230v206h206v-206h-206zM0 24v206h206v-206h-206zM0 280v206h206v-206h-206zM512 280v206h206v-206h-206zM768 280v206h206v-206h-206zM0 536v206h206v-206h-206zM256 536v206h206v-206h-206zM1024 536v206h206v-206h-206zM0 792v206h206v-206h-206zM1024 792v206h206 v-206h-206zM0 1048v206h206v-206h-206zM1024 1048v206h206v-206h-206zM0 1304v206h206v-206h-206zM256 1304v206h206v-206h-206zM512 1304v206h206v-206h-206zM768 1304v206h206v-206h-206z" />
<glyph unicode="q" d="M1024 -230v206h206v-206h-206zM1024 24v206h206v-206h-206zM256 280v206h206v-206h-206zM512 280v206h206v-206h-206zM1024 280v206h206v-206h-206zM0 536v206h206v-206h-206zM768 536v206h206v-206h-206zM1024 536v206h206v-206h-206zM0 792v206h206v-206h-206z M1024 792v206h206v-206h-206zM0 1048v206h206v-206h-206zM1024 1048v206h206v-206h-206zM256 1304v206h206v-206h-206zM512 1304v206h206v-206h-206zM768 1304v206h206v-206h-206z" />
<glyph unicode="r" horiz-adv-x="1228" d="M0 280v206h206v-206h-206zM0 536v206h206v-206h-206zM0 792v206h206v-206h-206zM0 1048v206h206v-206h-206zM256 1048v206h206v-206h-206zM0 1304v206h206v-206h-206zM512 1304v206h206v-206h-206zM768 1304v206h206v-206h-206z" />
<glyph unicode="s" d="M0 280v206h206v-206h-206zM256 280v206h206v-206h-206zM512 280v206h206v-206h-206zM768 280v206h206v-206h-206zM1024 536v206h206v-206h-206zM256 792v206h206v-206h-206zM512 792v206h206v-206h-206zM768 792v206h206v-206h-206zM0 1048v206h206v-206h-206zM256 1304 v206h206v-206h-206zM512 1304v206h206v-206h-206zM768 1304v206h206v-206h-206zM1024 1304v206h206v-206h-206z" />
<glyph unicode="t" horiz-adv-x="1228" d="M512 280v206h206v-206h-206zM768 280v206h206v-206h-206zM256 536v206h206v-206h-206zM256 792v206h206v-206h-206zM256 1048v206h206v-206h-206zM0 1304v206h206v-206h-206zM256 1304v206h206v-206h-206zM512 1304v206h206v-206h-206zM768 1304v206h206v-206h-206z M256 1560v206h206v-206h-206z" />
<glyph unicode="u" d="M256 280v206h206v-206h-206zM512 280v206h206v-206h-206zM768 280v206h206v-206h-206zM1024 280v206h206v-206h-206zM0 536v206h206v-206h-206zM1024 536v206h206v-206h-206zM0 792v206h206v-206h-206zM1024 792v206h206v-206h-206zM0 1048v206h206v-206h-206zM1024 1048 v206h206v-206h-206zM0 1304v206h206v-206h-206zM1024 1304v206h206v-206h-206z" />
<glyph unicode="v" d="M512 280v206h206v-206h-206zM256 536v206h206v-206h-206zM768 536v206h206v-206h-206zM0 792v206h206v-206h-206zM1024 792v206h206v-206h-206zM0 1048v206h206v-206h-206zM1024 1048v206h206v-206h-206zM0 1304v206h206v-206h-206zM1024 1304v206h206v-206h-206z" />
<glyph unicode="w" horiz-adv-x="1996" d="M256 280v206h206v-206h-206zM512 280v206h206v-206h-206zM1024 280v206h206v-206h-206zM1280 280v206h206v-206h-206zM0 536v206h206v-206h-206zM768 536v206h206v-206h-206zM1536 536v206h206v-206h-206zM0 792v206h206v-206h-206zM768 792v206h206v-206h-206zM1536 792 v206h206v-206h-206zM0 1048v206h206v-206h-206zM768 1048v206h206v-206h-206zM1536 1048v206h206v-206h-206zM0 1304v206h206v-206h-206zM1536 1304v206h206v-206h-206z" />
<glyph unicode="x" d="M0 280v206h206v-206h-206zM1024 280v206h206v-206h-206zM256 536v206h206v-206h-206zM768 536v206h206v-206h-206zM512 792v206h206v-206h-206zM256 1048v206h206v-206h-206zM768 1048v206h206v-206h-206zM0 1304v206h206v-206h-206zM1024 1304v206h206v-206h-206z" />
<glyph unicode="y" d="M256 -230v206h206v-206h-206zM512 -230v206h206v-206h-206zM768 -230v206h206v-206h-206zM1024 24v206h206v-206h-206zM256 280v206h206v-206h-206zM512 280v206h206v-206h-206zM768 280v206h206v-206h-206zM1024 280v206h206v-206h-206zM0 536v206h206v-206h-206z M1024 536v206h206v-206h-206zM0 792v206h206v-206h-206zM1024 792v206h206v-206h-206zM0 1048v206h206v-206h-206zM1024 1048v206h206v-206h-206zM0 1304v206h206v-206h-206zM1024 1304v206h206v-206h-206z" />
<glyph unicode="z" d="M0 280v206h206v-206h-206zM256 280v206h206v-206h-206zM512 280v206h206v-206h-206zM768 280v206h206v-206h-206zM1024 280v206h206v-206h-206zM256 536v206h206v-206h-206zM512 792v206h206v-206h-206zM768 1048v206h206v-206h-206zM0 1304v206h206v-206h-206zM256 1304 v206h206v-206h-206zM512 1304v206h206v-206h-206zM768 1304v206h206v-206h-206zM1024 1304v206h206v-206h-206z" />
<glyph unicode="{" horiz-adv-x="972" d="M512 -230v206h206v-206h-206zM256 24v206h206v-206h-206zM256 280v206h206v-206h-206zM256 536v206h206v-206h-206zM0 792v206h206v-206h-206zM256 1048v206h206v-206h-206zM256 1304v206h206v-206h-206zM256 1560v206h206v-206h-206zM512 1816v206h206v-206h-206z" />
<glyph unicode="|" horiz-adv-x="460" d="M0 -230v206h206v-206h-206zM0 24v206h206v-206h-206zM0 280v206h206v-206h-206zM0 536v206h206v-206h-206zM0 792v206h206v-206h-206zM0 1048v206h206v-206h-206zM0 1304v206h206v-206h-206zM0 1560v206h206v-206h-206zM0 1816v206h206v-206h-206z" />
<glyph unicode="}" horiz-adv-x="972" d="M0 -230v206h206v-206h-206zM256 24v206h206v-206h-206zM256 280v206h206v-206h-206zM256 536v206h206v-206h-206zM512 792v206h206v-206h-206zM256 1048v206h206v-206h-206zM256 1304v206h206v-206h-206zM256 1560v206h206v-206h-206zM0 1816v206h206v-206h-206z" />
<glyph unicode="~" horiz-adv-x="1228" d="M0 792v206h206v-206h-206zM512 792v206h206v-206h-206zM256 1048v206h206v-206h-206zM768 1048v206h206v-206h-206z" />
<glyph unicode="&#xaa;" d="M256 280v206h206v-206h-206zM512 280v206h206v-206h-206zM768 280v206h206v-206h-206zM1024 280v206h206v-206h-206zM0 536v206h206v-206h-206zM1024 536v206h206v-206h-206zM256 792v206h206v-206h-206zM512 792v206h206v-206h-206zM768 792v206h206v-206h-206z M1024 792v206h206v-206h-206zM1024 1048v206h206v-206h-206zM256 1304v206h206v-206h-206zM512 1304v206h206v-206h-206zM768 1304v206h206v-206h-206z" />
<glyph unicode="&#xad;" horiz-adv-x="972" d="M0 1048v206h206v-206h-206zM256 1048v206h206v-206h-206zM512 1048v206h206v-206h-206z" />
<glyph unicode="&#xb2;" d="M0 280v206h206v-206h-206zM256 280v206h206v-206h-206zM512 280v206h206v-206h-206zM768 280v206h206v-206h-206zM1024 280v206h206v-206h-206zM0 536v206h206v-206h-206zM256 792v206h206v-206h-206zM512 1048v206h206v-206h-206zM768 1048v206h206v-206h-206z M1024 1304v206h206v-206h-206zM0 1560v206h206v-206h-206zM1024 1560v206h206v-206h-206zM256 1816v206h206v-206h-206zM512 1816v206h206v-206h-206zM768 1816v206h206v-206h-206z" />
<glyph unicode="&#xb3;" d="M256 280v206h206v-206h-206zM512 280v206h206v-206h-206zM768 280v206h206v-206h-206zM0 536v206h206v-206h-206zM1024 536v206h206v-206h-206zM1024 792v206h206v-206h-206zM512 1048v206h206v-206h-206zM768 1048v206h206v-206h-206zM1024 1304v206h206v-206h-206z M0 1560v206h206v-206h-206zM1024 1560v206h206v-206h-206zM256 1816v206h206v-206h-206zM512 1816v206h206v-206h-206zM768 1816v206h206v-206h-206z" />
<glyph unicode="&#xb9;" horiz-adv-x="972" d="M0 280v206h206v-206h-206zM256 280v206h206v-206h-206zM512 280v206h206v-206h-206zM256 536v206h206v-206h-206zM256 792v206h206v-206h-206zM256 1048v206h206v-206h-206zM256 1304v206h206v-206h-206zM0 1560v206h206v-206h-206zM256 1560v206h206v-206h-206z M256 1816v206h206v-206h-206z" />
<glyph unicode="&#xba;" d="M256 280v206h206v-206h-206zM512 280v206h206v-206h-206zM768 280v206h206v-206h-206zM0 536v206h206v-206h-206zM1024 536v206h206v-206h-206zM0 792v206h206v-206h-206zM1024 792v206h206v-206h-206zM0 1048v206h206v-206h-206zM1024 1048v206h206v-206h-206zM256 1304 v206h206v-206h-206zM512 1304v206h206v-206h-206zM768 1304v206h206v-206h-206z" />
<glyph unicode="&#xc0;" d="M552 2144v256h-128v256h256v-512h-128zM0 280v206h206v-206h-206zM1024 280v206h206v-206h-206zM0 536v206h206v-206h-206zM1024 536v206h206v-206h-206zM0 792v206h206v-206h-206zM256 792v206h206v-206h-206zM512 792v206h206v-206h-206zM768 792v206h206v-206h-206z M1024 792v206h206v-206h-206zM0 1048v206h206v-206h-206zM1024 1048v206h206v-206h-206zM0 1304v206h206v-206h-206zM1024 1304v206h206v-206h-206zM256 1560v206h206v-206h-206zM768 1560v206h206v-206h-206zM512 1816v206h206v-206h-206z" />
<glyph unicode="&#xc2;" d="M256 2144v206h206v-206h-206zM768 2144v206h206v-206h-206zM512 2400v206h206v-206h-206zM0 280v206h206v-206h-206zM1024 280v206h206v-206h-206zM0 536v206h206v-206h-206zM1024 536v206h206v-206h-206zM0 792v206h206v-206h-206zM256 792v206h206v-206h-206zM512 792 v206h206v-206h-206zM768 792v206h206v-206h-206zM1024 792v206h206v-206h-206zM0 1048v206h206v-206h-206zM1024 1048v206h206v-206h-206zM0 1304v206h206v-206h-206zM1024 1304v206h206v-206h-206zM256 1560v206h206v-206h-206zM768 1560v206h206v-206h-206zM512 1816v206 h206v-206h-206z" />
<glyph unicode="&#xc3;" d="M128 2144v206h206v-206h-206zM640 2144v206h206v-206h-206zM384 2400v206h206v-206h-206zM896 2400v206h206v-206h-206zM0 280v206h206v-206h-206zM1024 280v206h206v-206h-206zM0 536v206h206v-206h-206zM1024 536v206h206v-206h-206zM0 792v206h206v-206h-206zM256 792 v206h206v-206h-206zM512 792v206h206v-206h-206zM768 792v206h206v-206h-206zM1024 792v206h206v-206h-206zM0 1048v206h206v-206h-206zM1024 1048v206h206v-206h-206zM0 1304v206h206v-206h-206zM1024 1304v206h206v-206h-206zM256 1560v206h206v-206h-206zM768 1560v206 h206v-206h-206zM512 1816v206h206v-206h-206z" />
<glyph unicode="&#xc8;" d="M552 2144v256h-128v256h256v-512h-128zM0 280v206h206v-206h-206zM256 280v206h206v-206h-206zM512 280v206h206v-206h-206zM768 280v206h206v-206h-206zM1024 280v206h206v-206h-206zM0 536v206h206v-206h-206zM0 792v206h206v-206h-206zM0 1048v206h206v-206h-206z M256 1048v206h206v-206h-206zM512 1048v206h206v-206h-206zM768 1048v206h206v-206h-206zM0 1304v206h206v-206h-206zM0 1560v206h206v-206h-206zM0 1816v206h206v-206h-206zM256 1816v206h206v-206h-206zM512 1816v206h206v-206h-206zM768 1816v206h206v-206h-206z M1024 1816v206h206v-206h-206z" />
<glyph unicode="&#xca;" d="M256 2144v206h206v-206h-206zM768 2144v206h206v-206h-206zM512 2400v206h206v-206h-206zM0 280v206h206v-206h-206zM256 280v206h206v-206h-206zM512 280v206h206v-206h-206zM768 280v206h206v-206h-206zM1024 280v206h206v-206h-206zM0 536v206h206v-206h-206zM0 792 v206h206v-206h-206zM0 1048v206h206v-206h-206zM256 1048v206h206v-206h-206zM512 1048v206h206v-206h-206zM768 1048v206h206v-206h-206zM0 1304v206h206v-206h-206zM0 1560v206h206v-206h-206zM0 1816v206h206v-206h-206zM256 1816v206h206v-206h-206zM512 1816v206h206 v-206h-206zM768 1816v206h206v-206h-206zM1024 1816v206h206v-206h-206z" />
<glyph unicode="&#xcc;" horiz-adv-x="972" d="M296 2144v256h-128v256h256v-512h-128zM0 280v206h206v-206h-206zM256 280v206h206v-206h-206zM512 280v206h206v-206h-206zM256 536v206h206v-206h-206zM256 792v206h206v-206h-206zM256 1048v206h206v-206h-206zM256 1304v206h206v-206h-206zM256 1560v206h206v-206 h-206zM0 1816v206h206v-206h-206zM256 1816v206h206v-206h-206zM512 1816v206h206v-206h-206z" />
<glyph unicode="&#xce;" horiz-adv-x="972" d="M0 2144v206h206v-206h-206zM512 2144v206h206v-206h-206zM256 2400v206h206v-206h-206zM0 280v206h206v-206h-206zM256 280v206h206v-206h-206zM512 280v206h206v-206h-206zM256 536v206h206v-206h-206zM256 792v206h206v-206h-206zM256 1048v206h206v-206h-206z M256 1304v206h206v-206h-206zM256 1560v206h206v-206h-206zM0 1816v206h206v-206h-206zM256 1816v206h206v-206h-206zM512 1816v206h206v-206h-206z" />
<glyph unicode="&#xd1;" d="M128 2144v206h206v-206h-206zM640 2144v206h206v-206h-206zM384 2400v206h206v-206h-206zM896 2400v206h206v-206h-206zM0 280v206h206v-206h-206zM1024 280v206h206v-206h-206zM0 536v206h206v-206h-206zM1024 536v206h206v-206h-206zM0 792v206h206v-206h-206z M1024 792v206h206v-206h-206zM0 1048v206h206v-206h-206zM768 1048v206h206v-206h-206zM1024 1048v206h206v-206h-206zM0 1304v206h206v-206h-206zM512 1304v206h206v-206h-206zM1024 1304v206h206v-206h-206zM0 1560v206h206v-206h-206zM256 1560v206h206v-206h-206z M1024 1560v206h206v-206h-206zM0 1816v206h206v-206h-206zM1024 1816v206h206v-206h-206z" />
<glyph unicode="&#xd2;" d="M552 2144v256h-128v256h256v-512h-128zM256 280v206h206v-206h-206zM512 280v206h206v-206h-206zM768 280v206h206v-206h-206zM0 536v206h206v-206h-206zM1024 536v206h206v-206h-206zM0 792v206h206v-206h-206zM1024 792v206h206v-206h-206zM0 1048v206h206v-206h-206z M1024 1048v206h206v-206h-206zM0 1304v206h206v-206h-206zM1024 1304v206h206v-206h-206zM0 1560v206h206v-206h-206zM1024 1560v206h206v-206h-206zM256 1816v206h206v-206h-206zM512 1816v206h206v-206h-206zM768 1816v206h206v-206h-206z" />
<glyph unicode="&#xd4;" d="M256 2144v206h206v-206h-206zM768 2144v206h206v-206h-206zM512 2400v206h206v-206h-206zM256 280v206h206v-206h-206zM512 280v206h206v-206h-206zM768 280v206h206v-206h-206zM0 536v206h206v-206h-206zM1024 536v206h206v-206h-206zM0 792v206h206v-206h-206z M1024 792v206h206v-206h-206zM0 1048v206h206v-206h-206zM1024 1048v206h206v-206h-206zM0 1304v206h206v-206h-206zM1024 1304v206h206v-206h-206zM0 1560v206h206v-206h-206zM1024 1560v206h206v-206h-206zM256 1816v206h206v-206h-206zM512 1816v206h206v-206h-206z M768 1816v206h206v-206h-206z" />
<glyph unicode="&#xd5;" d="M128 2144v206h206v-206h-206zM640 2144v206h206v-206h-206zM384 2400v206h206v-206h-206zM896 2400v206h206v-206h-206zM256 280v206h206v-206h-206zM512 280v206h206v-206h-206zM768 280v206h206v-206h-206zM0 536v206h206v-206h-206zM1024 536v206h206v-206h-206z M0 792v206h206v-206h-206zM1024 792v206h206v-206h-206zM0 1048v206h206v-206h-206zM1024 1048v206h206v-206h-206zM0 1304v206h206v-206h-206zM1024 1304v206h206v-206h-206zM0 1560v206h206v-206h-206zM1024 1560v206h206v-206h-206zM256 1816v206h206v-206h-206z M512 1816v206h206v-206h-206zM768 1816v206h206v-206h-206z" />
<glyph unicode="&#xd9;" d="M552 2144v256h-128v256h256v-512h-128zM256 280v206h206v-206h-206zM512 280v206h206v-206h-206zM768 280v206h206v-206h-206zM0 536v206h206v-206h-206zM1024 536v206h206v-206h-206zM0 792v206h206v-206h-206zM1024 792v206h206v-206h-206zM0 1048v206h206v-206h-206z M1024 1048v206h206v-206h-206zM0 1304v206h206v-206h-206zM1024 1304v206h206v-206h-206zM0 1560v206h206v-206h-206zM1024 1560v206h206v-206h-206zM0 1816v206h206v-206h-206zM1024 1816v206h206v-206h-206z" />
<glyph unicode="&#xdb;" d="M256 2144v206h206v-206h-206zM768 2144v206h206v-206h-206zM512 2400v206h206v-206h-206zM256 280v206h206v-206h-206zM512 280v206h206v-206h-206zM768 280v206h206v-206h-206zM0 536v206h206v-206h-206zM1024 536v206h206v-206h-206zM0 792v206h206v-206h-206z M1024 792v206h206v-206h-206zM0 1048v206h206v-206h-206zM1024 1048v206h206v-206h-206zM0 1304v206h206v-206h-206zM1024 1304v206h206v-206h-206zM0 1560v206h206v-206h-206zM1024 1560v206h206v-206h-206zM0 1816v206h206v-206h-206zM1024 1816v206h206v-206h-206z" />
<glyph unicode="&#xe0;" d="M552 1632v256h-128v256h256v-512h-128zM256 280v206h206v-206h-206zM512 280v206h206v-206h-206zM768 280v206h206v-206h-206zM1024 280v206h206v-206h-206zM0 536v206h206v-206h-206zM1024 536v206h206v-206h-206zM256 792v206h206v-206h-206zM512 792v206h206v-206 h-206zM768 792v206h206v-206h-206zM1024 792v206h206v-206h-206zM1024 1048v206h206v-206h-206zM256 1304v206h206v-206h-206zM512 1304v206h206v-206h-206zM768 1304v206h206v-206h-206z" />
<glyph unicode="&#xe2;" d="M256 1632v206h206v-206h-206zM768 1632v206h206v-206h-206zM512 1888v206h206v-206h-206zM256 280v206h206v-206h-206zM512 280v206h206v-206h-206zM768 280v206h206v-206h-206zM1024 280v206h206v-206h-206zM0 536v206h206v-206h-206zM1024 536v206h206v-206h-206z M256 792v206h206v-206h-206zM512 792v206h206v-206h-206zM768 792v206h206v-206h-206zM1024 792v206h206v-206h-206zM1024 1048v206h206v-206h-206zM256 1304v206h206v-206h-206zM512 1304v206h206v-206h-206zM768 1304v206h206v-206h-206z" />
<glyph unicode="&#xe3;" d="M128 1632v206h206v-206h-206zM640 1632v206h206v-206h-206zM384 1888v206h206v-206h-206zM896 1888v206h206v-206h-206zM256 280v206h206v-206h-206zM512 280v206h206v-206h-206zM768 280v206h206v-206h-206zM1024 280v206h206v-206h-206zM0 536v206h206v-206h-206z M1024 536v206h206v-206h-206zM256 792v206h206v-206h-206zM512 792v206h206v-206h-206zM768 792v206h206v-206h-206zM1024 792v206h206v-206h-206zM1024 1048v206h206v-206h-206zM256 1304v206h206v-206h-206zM512 1304v206h206v-206h-206zM768 1304v206h206v-206h-206z" />
<glyph unicode="&#xe8;" d="M552 1632v256h-128v256h256v-512h-128zM256 280v206h206v-206h-206zM512 280v206h206v-206h-206zM768 280v206h206v-206h-206zM1024 280v206h206v-206h-206zM0 536v206h206v-206h-206zM0 792v206h206v-206h-206zM256 792v206h206v-206h-206zM512 792v206h206v-206h-206z M768 792v206h206v-206h-206zM0 1048v206h206v-206h-206zM1024 1048v206h206v-206h-206zM256 1304v206h206v-206h-206zM512 1304v206h206v-206h-206zM768 1304v206h206v-206h-206z" />
<glyph unicode="&#xea;" d="M256 1632v206h206v-206h-206zM768 1632v206h206v-206h-206zM512 1888v206h206v-206h-206zM256 280v206h206v-206h-206zM512 280v206h206v-206h-206zM768 280v206h206v-206h-206zM1024 280v206h206v-206h-206zM0 536v206h206v-206h-206zM0 792v206h206v-206h-206zM256 792 v206h206v-206h-206zM512 792v206h206v-206h-206zM768 792v206h206v-206h-206zM0 1048v206h206v-206h-206zM1024 1048v206h206v-206h-206zM256 1304v206h206v-206h-206zM512 1304v206h206v-206h-206zM768 1304v206h206v-206h-206z" />
<glyph unicode="&#xec;" horiz-adv-x="460" d="M40 2144v256h-128v256h256v-512h-128zM0 280v206h206v-206h-206zM0 536v206h206v-206h-206zM0 792v206h206v-206h-206zM0 1048v206h206v-206h-206zM0 1304v206h206v-206h-206zM0 1816v206h206v-206h-206z" />
<glyph unicode="&#xee;" horiz-adv-x="460" d="M-256 2144v206h206v-206h-206zM256 2144v206h206v-206h-206zM0 2400v206h206v-206h-206zM0 280v206h206v-206h-206zM0 536v206h206v-206h-206zM0 792v206h206v-206h-206zM0 1048v206h206v-206h-206zM0 1304v206h206v-206h-206zM0 1816v206h206v-206h-206z" />
<glyph unicode="&#xf1;" d="M128 1632v206h206v-206h-206zM640 1632v206h206v-206h-206zM384 1888v206h206v-206h-206zM896 1888v206h206v-206h-206zM0 280v206h206v-206h-206zM1024 280v206h206v-206h-206zM0 536v206h206v-206h-206zM1024 536v206h206v-206h-206zM0 792v206h206v-206h-206z M1024 792v206h206v-206h-206zM0 1048v206h206v-206h-206zM1024 1048v206h206v-206h-206zM0 1304v206h206v-206h-206zM256 1304v206h206v-206h-206zM512 1304v206h206v-206h-206zM768 1304v206h206v-206h-206z" />
<glyph unicode="&#xf2;" d="M552 1632v256h-128v256h256v-512h-128zM256 280v206h206v-206h-206zM512 280v206h206v-206h-206zM768 280v206h206v-206h-206zM0 536v206h206v-206h-206zM1024 536v206h206v-206h-206zM0 792v206h206v-206h-206zM1024 792v206h206v-206h-206zM0 1048v206h206v-206h-206z M1024 1048v206h206v-206h-206zM256 1304v206h206v-206h-206zM512 1304v206h206v-206h-206zM768 1304v206h206v-206h-206z" />
<glyph unicode="&#xf4;" d="M256 1632v206h206v-206h-206zM768 1632v206h206v-206h-206zM512 1888v206h206v-206h-206zM256 280v206h206v-206h-206zM512 280v206h206v-206h-206zM768 280v206h206v-206h-206zM0 536v206h206v-206h-206zM1024 536v206h206v-206h-206zM0 792v206h206v-206h-206z M1024 792v206h206v-206h-206zM0 1048v206h206v-206h-206zM1024 1048v206h206v-206h-206zM256 1304v206h206v-206h-206zM512 1304v206h206v-206h-206zM768 1304v206h206v-206h-206z" />
<glyph unicode="&#xf5;" d="M128 1632v206h206v-206h-206zM640 1632v206h206v-206h-206zM384 1888v206h206v-206h-206zM896 1888v206h206v-206h-206zM256 280v206h206v-206h-206zM512 280v206h206v-206h-206zM768 280v206h206v-206h-206zM0 536v206h206v-206h-206zM1024 536v206h206v-206h-206z M0 792v206h206v-206h-206zM1024 792v206h206v-206h-206zM0 1048v206h206v-206h-206zM1024 1048v206h206v-206h-206zM256 1304v206h206v-206h-206zM512 1304v206h206v-206h-206zM768 1304v206h206v-206h-206z" />
<glyph unicode="&#xf9;" d="M552 1632v256h-128v256h256v-512h-128zM256 280v206h206v-206h-206zM512 280v206h206v-206h-206zM768 280v206h206v-206h-206zM1024 280v206h206v-206h-206zM0 536v206h206v-206h-206zM1024 536v206h206v-206h-206zM0 792v206h206v-206h-206zM1024 792v206h206v-206h-206 zM0 1048v206h206v-206h-206zM1024 1048v206h206v-206h-206zM0 1304v206h206v-206h-206zM1024 1304v206h206v-206h-206z" />
<glyph unicode="&#xfb;" d="M256 1632v206h206v-206h-206zM768 1632v206h206v-206h-206zM512 1888v206h206v-206h-206zM256 280v206h206v-206h-206zM512 280v206h206v-206h-206zM768 280v206h206v-206h-206zM1024 280v206h206v-206h-206zM0 536v206h206v-206h-206zM1024 536v206h206v-206h-206z M0 792v206h206v-206h-206zM1024 792v206h206v-206h-206zM0 1048v206h206v-206h-206zM1024 1048v206h206v-206h-206zM0 1304v206h206v-206h-206zM1024 1304v206h206v-206h-206z" />
<glyph unicode="&#x152;" horiz-adv-x="2968" d="M1484 280v206h206v-206h-206zM1740 280v206h206v-206h-206zM1996 280v206h206v-206h-206zM2252 280v206h206v-206h-206zM2508 280v206h206v-206h-206zM1484 536v206h206v-206h-206zM1484 792v206h206v-206h-206zM1484 1048v206h206v-206h-206zM1740 1048v206h206v-206 h-206zM1996 1048v206h206v-206h-206zM2252 1048v206h206v-206h-206zM1484 1304v206h206v-206h-206zM1484 1560v206h206v-206h-206zM1484 1816v206h206v-206h-206zM1740 1816v206h206v-206h-206zM1996 1816v206h206v-206h-206zM2252 1816v206h206v-206h-206zM2508 1816v206 h206v-206h-206zM256 280v206h206v-206h-206zM512 280v206h206v-206h-206zM768 280v206h206v-206h-206zM0 536v206h206v-206h-206zM1024 536v206h206v-206h-206zM0 792v206h206v-206h-206zM1024 792v206h206v-206h-206zM0 1048v206h206v-206h-206zM1024 1048v206h206v-206 h-206zM0 1304v206h206v-206h-206zM1024 1304v206h206v-206h-206zM0 1560v206h206v-206h-206zM1024 1560v206h206v-206h-206zM256 1816v206h206v-206h-206zM512 1816v206h206v-206h-206zM768 1816v206h206v-206h-206z" />
<glyph unicode="&#x153;" horiz-adv-x="2968" d="M1740 280v206h206v-206h-206zM1996 280v206h206v-206h-206zM2252 280v206h206v-206h-206zM2508 280v206h206v-206h-206zM1484 536v206h206v-206h-206zM1484 792v206h206v-206h-206zM1740 792v206h206v-206h-206zM1996 792v206h206v-206h-206zM2252 792v206h206v-206h-206 zM1484 1048v206h206v-206h-206zM2508 1048v206h206v-206h-206zM1740 1304v206h206v-206h-206zM1996 1304v206h206v-206h-206zM2252 1304v206h206v-206h-206zM256 280v206h206v-206h-206zM512 280v206h206v-206h-206zM768 280v206h206v-206h-206zM0 536v206h206v-206h-206z M1024 536v206h206v-206h-206zM0 792v206h206v-206h-206zM1024 792v206h206v-206h-206zM0 1048v206h206v-206h-206zM1024 1048v206h206v-206h-206zM256 1304v206h206v-206h-206zM512 1304v206h206v-206h-206zM768 1304v206h206v-206h-206z" />
<glyph unicode="&#x2c6;" horiz-adv-x="972" d="M0 1560v206h206v-206h-206zM512 1560v206h206v-206h-206zM256 1816v206h206v-206h-206z" />
<glyph unicode="&#x2dc;" horiz-adv-x="512" d="M-488 122v206h206v-206h-206zM24 122v206h206v-206h-206zM-232 378v206h206v-206h-206zM280 378v206h206v-206h-206z" />
<glyph unicode="&#x2000;" horiz-adv-x="1328" />
<glyph unicode="&#x2001;" horiz-adv-x="2656" />
<glyph unicode="&#x2002;" horiz-adv-x="1328" />
<glyph unicode="&#x2003;" horiz-adv-x="2656" />
<glyph unicode="&#x2004;" horiz-adv-x="884" />
<glyph unicode="&#x2005;" horiz-adv-x="664" />
<glyph unicode="&#x2006;" horiz-adv-x="442" />
<glyph unicode="&#x2007;" horiz-adv-x="442" />
<glyph unicode="&#x2008;" horiz-adv-x="332" />
<glyph unicode="&#x2009;" horiz-adv-x="530" />
<glyph unicode="&#x200a;" horiz-adv-x="146" />
<glyph unicode="&#x2010;" horiz-adv-x="972" d="M0 1048v206h206v-206h-206zM256 1048v206h206v-206h-206zM512 1048v206h206v-206h-206z" />
<glyph unicode="&#x2011;" horiz-adv-x="972" d="M0 1048v206h206v-206h-206zM256 1048v206h206v-206h-206zM512 1048v206h206v-206h-206z" />
<glyph unicode="&#x2012;" horiz-adv-x="972" d="M0 1048v206h206v-206h-206zM256 1048v206h206v-206h-206zM512 1048v206h206v-206h-206z" />
<glyph unicode="&#x2013;" horiz-adv-x="1024" d="M0 1048v206h770v-206h-770z" />
<glyph unicode="&#x2014;" horiz-adv-x="2048" d="M0 1048v206h1794v-206h-1794z" />
<glyph unicode="&#x2018;" horiz-adv-x="512" d="M128 1536v256h-128v256h256v-512h-128z" />
<glyph unicode="&#x2019;" horiz-adv-x="512" d="M0 1536v512h128v-256h128v-256h-256z" />
<glyph unicode="&#x201c;" horiz-adv-x="1024" d="M128 1536v256h-128v256h256v-512h-128zM640 1536v256h-128v256h256v-512h-128z" />
<glyph unicode="&#x201d;" horiz-adv-x="1024" d="M0 1536v512h128v-256h128v-256h-256zM512 1536v512h128v-256h128v-256h-256z" />
<glyph unicode="&#x2026;" horiz-adv-x="1380" d="M920 280v206h206v-206h-206zM460 280v206h206v-206h-206zM0 280v206h206v-206h-206z" />
<glyph unicode="&#x202f;" horiz-adv-x="530" />
<glyph unicode="&#x2039;" horiz-adv-x="972" d="M512 536v206h206v-206h-206zM256 792v206h206v-206h-206zM0 1048v206h206v-206h-206zM256 1304v206h206v-206h-206zM512 1560v206h206v-206h-206z" />
<glyph unicode="&#x203a;" horiz-adv-x="972" d="M0 536v206h206v-206h-206zM256 792v206h206v-206h-206zM512 1048v206h206v-206h-206zM256 1304v206h206v-206h-206zM0 1560v206h206v-206h-206z" />
<glyph unicode="&#x205f;" horiz-adv-x="664" />
<glyph unicode="&#x2122;" horiz-adv-x="2968" d="M1484 280v206h206v-206h-206zM2508 280v206h206v-206h-206zM1484 536v206h206v-206h-206zM2508 536v206h206v-206h-206zM1484 792v206h206v-206h-206zM2508 792v206h206v-206h-206zM1484 1048v206h206v-206h-206zM1996 1048v206h206v-206h-206zM2508 1048v206h206v-206 h-206zM1484 1304v206h206v-206h-206zM1996 1304v206h206v-206h-206zM2508 1304v206h206v-206h-206zM1484 1560v206h206v-206h-206zM1740 1560v206h206v-206h-206zM2252 1560v206h206v-206h-206zM2508 1560v206h206v-206h-206zM1484 1816v206h206v-206h-206zM2508 1816v206 h206v-206h-206zM512 280v206h206v-206h-206zM512 536v206h206v-206h-206zM512 792v206h206v-206h-206zM512 1048v206h206v-206h-206zM512 1304v206h206v-206h-206zM512 1560v206h206v-206h-206zM0 1816v206h206v-206h-206zM256 1816v206h206v-206h-206zM512 1816v206h206 v-206h-206zM768 1816v206h206v-206h-206zM1024 1816v206h206v-206h-206z" />
<glyph unicode="&#xe000;" horiz-adv-x="1510" d="M0 1510h1510v-1510h-1510v1510z" />
<glyph unicode="&#xfb01;" horiz-adv-x="1432" d="M972 280v206h206v-206h-206zM972 536v206h206v-206h-206zM972 792v206h206v-206h-206zM972 1048v206h206v-206h-206zM972 1304v206h206v-206h-206zM972 1816v206h206v-206h-206zM256 280v206h206v-206h-206zM256 536v206h206v-206h-206zM256 792v206h206v-206h-206z M256 1048v206h206v-206h-206zM0 1304v206h206v-206h-206zM256 1304v206h206v-206h-206zM512 1304v206h206v-206h-206zM256 1560v206h206v-206h-206zM512 1816v206h206v-206h-206z" />
<glyph unicode="&#xfb02;" horiz-adv-x="1432" d="M972 280v206h206v-206h-206zM972 536v206h206v-206h-206zM972 792v206h206v-206h-206zM972 1048v206h206v-206h-206zM972 1304v206h206v-206h-206zM972 1560v206h206v-206h-206zM972 1816v206h206v-206h-206zM256 280v206h206v-206h-206zM256 536v206h206v-206h-206z M256 792v206h206v-206h-206zM256 1048v206h206v-206h-206zM0 1304v206h206v-206h-206zM256 1304v206h206v-206h-206zM512 1304v206h206v-206h-206zM256 1560v206h206v-206h-206zM512 1816v206h206v-206h-206z" />
<glyph unicode="&#xfb03;" horiz-adv-x="2404" d="M1944 280v206h206v-206h-206zM1944 536v206h206v-206h-206zM1944 792v206h206v-206h-206zM1944 1048v206h206v-206h-206zM1944 1304v206h206v-206h-206zM1944 1816v206h206v-206h-206zM1228 280v206h206v-206h-206zM1228 536v206h206v-206h-206zM1228 792v206h206v-206 h-206zM1228 1048v206h206v-206h-206zM972 1304v206h206v-206h-206zM1228 1304v206h206v-206h-206zM1484 1304v206h206v-206h-206zM1228 1560v206h206v-206h-206zM1484 1816v206h206v-206h-206zM256 280v206h206v-206h-206zM256 536v206h206v-206h-206zM256 792v206h206v-206 h-206zM256 1048v206h206v-206h-206zM0 1304v206h206v-206h-206zM256 1304v206h206v-206h-206zM512 1304v206h206v-206h-206zM256 1560v206h206v-206h-206zM512 1816v206h206v-206h-206z" />
<glyph unicode="&#xfb04;" horiz-adv-x="2404" d="M1944 280v206h206v-206h-206zM1944 536v206h206v-206h-206zM1944 792v206h206v-206h-206zM1944 1048v206h206v-206h-206zM1944 1304v206h206v-206h-206zM1944 1560v206h206v-206h-206zM1944 1816v206h206v-206h-206zM1228 280v206h206v-206h-206zM1228 536v206h206v-206 h-206zM1228 792v206h206v-206h-206zM1228 1048v206h206v-206h-206zM972 1304v206h206v-206h-206zM1228 1304v206h206v-206h-206zM1484 1304v206h206v-206h-206zM1228 1560v206h206v-206h-206zM1484 1816v206h206v-206h-206zM256 280v206h206v-206h-206zM256 536v206h206 v-206h-206zM256 792v206h206v-206h-206zM256 1048v206h206v-206h-206zM0 1304v206h206v-206h-206zM256 1304v206h206v-206h-206zM512 1304v206h206v-206h-206zM256 1560v206h206v-206h-206zM512 1816v206h206v-206h-206z" />
</font>
</defs>
</svg>
